<?xml version="1.0" encoding="UTF-8" standalone="no"?>
<!-- Created with Inkscape (http://www.inkscape.org/) -->

<svg
   xmlns:dc="http://purl.org/dc/elements/1.1/"
   xmlns:cc="http://creativecommons.org/ns#"
   xmlns:rdf="http://www.w3.org/1999/02/22-rdf-syntax-ns#"
   xmlns:svg="http://www.w3.org/2000/svg"
   xmlns="http://www.w3.org/2000/svg"
   xmlns:sodipodi="http://sodipodi.sourceforge.net/DTD/sodipodi-0.dtd"
   xmlns:inkscape="http://www.inkscape.org/namespaces/inkscape"
   width="193.80133mm"
   height="34.798mm"
   viewBox="0 0 193.80133 34.798"
   version="1.1"
   id="svg8"
   inkscape:version="0.92.3 (2405546, 2018-03-11)"
   sodipodi:docname="logo.svg">
  <defs
     id="defs2" />
  <sodipodi:namedview
     id="base"
     pagecolor="#ffffff"
     bordercolor="#666666"
     borderopacity="1.0"
     inkscape:pageopacity="0.0"
     inkscape:pageshadow="2"
     inkscape:zoom="0.81231144"
     inkscape:cx="188.38115"
     inkscape:cy="-114.05673"
     inkscape:document-units="mm"
     inkscape:current-layer="text817"
     showgrid="false"
     inkscape:window-width="1853"
     inkscape:window-height="1145"
     inkscape:window-x="67"
     inkscape:window-y="27"
     inkscape:window-maximized="1"
     fit-margin-top="0"
     fit-margin-left="0"
     fit-margin-right="0"
     fit-margin-bottom="0" />
  <metadata
     id="metadata5">
    <rdf:RDF>
      <cc:Work
         rdf:about="">
        <dc:format>image/svg+xml</dc:format>
        <dc:type
           rdf:resource="http://purl.org/dc/dcmitype/StillImage" />
        <dc:title />
      </cc:Work>
    </rdf:RDF>
  </metadata>
  <g
     inkscape:label="Layer 1"
     inkscape:groupmode="layer"
     id="layer1"
     transform="translate(-1.6596564,-60.048667)">
    <g
       aria-label="xSIG 2018"
       style="font-style:normal;font-weight:normal;font-size:4.23333311px;line-height:125%;font-family:Sans;letter-spacing:0px;word-spacing:0px;fill:#000000;fill-opacity:1;stroke:#000000;stroke-width:0.26458332px;stroke-linecap:butt;stroke-linejoin:miter;stroke-opacity:1"
       id="text817">
      <path
         d="m 17.746323,91.205999 c -1.354667,-2.582333 -2.54,-4.995333 -3.302,-7.154333 4.445,-4.445 7.492999,-8.636 8.127999,-11.218333 -0.254,-0.635 -1.397,-1.227667 -2.794,-1.481667 -2.031999,4.529667 -3.894666,7.577667 -6.222999,10.244667 -0.846667,-2.624667 -1.185334,-4.868333 -1.185334,-7.069667 0,-0.846666 0,-1.185333 0.08467,-1.778 -1.27,-0.423333 -3.4713332,-0.889 -4.6566665,-0.889 -0.7196666,0 -0.8466666,0.211667 -0.8466666,0.973667 0,2.201333 1.4393333,7.747 3.3443331,12.234333 -2.1166665,2.455333 -6.392333,5.503333 -8.6359996,6.731 0.042333,0.889 0.5079999,1.481666 1.1006666,1.608666 2.4553333,-1.439333 5.4609998,-3.640666 8.339666,-6.222999 1.058334,2.582333 2.370667,4.614333 3.302,5.714999 1.185334,-0.08467 2.751667,-0.719666 3.344334,-1.693333 z"
         style="font-style:normal;font-variant:normal;font-weight:normal;font-stretch:normal;font-size:42.33333206px;font-family:'Kaushan Script';-inkscape-font-specification:'Kaushan Script, Normal';font-variant-ligatures:normal;font-variant-caps:normal;font-variant-numeric:normal;font-feature-settings:normal;text-align:start;writing-mode:lr-tb;text-anchor:start;fill:#0088aa;stroke:#0088aa;stroke-width:0.26458332px;stroke-opacity:1"
         id="path814" />
      <path
         d="M 49.549238,62.927333 C 46.035572,61.361 42.437238,60.218 38.754238,60.218 c -1.989666,0 -4.106333,0.338667 -5.926666,1.100667 -3.598333,1.481666 -5.588,4.529666 -5.588,7.704666 0,4.021667 3.005667,6.180667 10.16,9.313333 4.783666,2.074333 9.017,3.937 9.101666,6.180667 -0.127,1.312333 -1.439333,5.037666 -7.747,5.037666 -2.878666,0 -6.349999,-0.762 -9.440333,-2.582333 -3.301999,-1.947333 -4.952999,-4.529667 -5.122333,-6.223 -1.693333,1.905 -2.243666,3.767667 -2.243666,4.910667 0,4.825999 9.567333,9.016999 15.832666,9.016999 6.477,0 10.498666,-4.487333 10.498666,-10.286999 0,-4.995334 -2.624666,-6.646334 -8.339666,-9.313333 -4.572,-2.116667 -10.117667,-4.783667 -10.456333,-7.239 0.04233,-1.989667 3.259666,-3.217333 7.196666,-3.217333 3.979333,0 8.593667,1.27 10.837333,4.360333 1.397,-0.677334 2.286,-2.455333 2.286,-4.318 0,-0.592667 -0.08467,-0.762 -0.254,-1.735667 z"
         style="font-style:normal;font-variant:normal;font-weight:normal;font-stretch:normal;font-size:42.33333206px;font-family:'Kaushan Script';-inkscape-font-specification:'Kaushan Script, Normal';font-variant-ligatures:normal;font-variant-caps:normal;font-variant-numeric:normal;font-feature-settings:normal;text-align:start;writing-mode:lr-tb;text-anchor:start;fill:#0088aa;stroke:#0088aa;stroke-width:0.26458332px;stroke-opacity:1"
         id="path816" />
      <path
         d="m 52.900849,89.046999 c 0,0.973667 0.423333,3.471333 1.185333,3.767667 1.058334,0.423333 0.550334,1.905 3.005667,2.032 -0.08467,-0.127 -0.127,-0.381 -0.127,-0.889 0,-6.265333 5.207,-25.654 10.075333,-30.098999 -0.465667,-1.016 -3.513667,-2.54 -4.614333,-2.624667 -3.217334,3.344333 -9.525,21.674666 -9.525,27.812999 z"
         style="font-style:normal;font-variant:normal;font-weight:normal;font-stretch:normal;font-size:42.33333206px;font-family:'Kaushan Script';-inkscape-font-specification:'Kaushan Script, Normal';font-variant-ligatures:normal;font-variant-caps:normal;font-variant-numeric:normal;font-feature-settings:normal;text-align:start;writing-mode:lr-tb;text-anchor:start;fill:#0088aa;stroke:#0088aa;stroke-width:0.26458332px;stroke-opacity:1"
         id="path818" />
      <path
         d="m 88.395363,77.997999 c -2.667,0 -9.186333,1.566334 -11.176,2.667 0.465667,1.481667 1.820333,2.370667 3.513667,2.370667 1.269999,0 2.751666,-0.381 4.317999,-0.719667 -0.465666,4.064 -4.444999,9.440333 -8.043333,10.244667 -2.667,-0.254 -4.783666,-3.725334 -4.783666,-8.636 0,-6.646333 1.820333,-11.768666 6.011333,-16.764 2.921,-3.513666 5.969,-5.503333 8.466666,-5.503333 1.481667,0 2.328334,0.677334 2.328334,1.947334 0,1.651 -0.677334,2.624666 -2.624667,4.063999 0.211667,1.27 1.27,2.370667 2.582333,2.751667 2.159,-1.947333 3.005667,-3.556 3.005667,-5.503333 0,-2.963333 -2.328333,-4.699 -6.180667,-4.699 -9.905999,0 -19.176999,11.133666 -19.176999,22.732999 0,7.916333 3.344333,11.557 10.879666,11.726333 4.826,-1.227666 10.414,-7.789333 11.133667,-12.742333 0.719666,0.04233 1.354666,0.127 1.947333,0.254 0.127,-0.338666 0.169333,-0.889 0.169333,-1.312333 0,-1.820333 -0.889,-2.878667 -2.370666,-2.878667 z"
         style="font-style:normal;font-variant:normal;font-weight:normal;font-stretch:normal;font-size:42.33333206px;font-family:'Kaushan Script';-inkscape-font-specification:'Kaushan Script, Normal';font-variant-ligatures:normal;font-variant-caps:normal;font-variant-numeric:normal;font-feature-settings:normal;text-align:start;writing-mode:lr-tb;text-anchor:start;fill:#0088aa;stroke:#0088aa;stroke-width:0.26458332px;stroke-opacity:1"
         id="path820" />
      <path
         d="m 125.59247,67.838 c 0,-4.233333 -3.09033,-7.112 -7.747,-7.112 -5.334,0 -10.75267,3.767667 -10.75267,8.043333 0,2.54 1.94734,4.445 4.61434,4.445 0.381,0 0.71966,-0.04233 1.10066,-0.127 -0.889,-1.100667 -1.31233,-2.159 -1.31233,-3.556 0,-3.852333 3.175,-7.154333 6.39233,-7.154333 2.286,0 3.85234,1.693333 3.85234,4.445 0,4.402666 -4.064,8.255 -10.668,13.673666 -5.88434,4.826 -8.382,6.858 -9.10167,10.117666 0.42333,1.397 1.651,2.751667 3.00567,3.344334 1.82033,-1.354667 5.461,-1.481667 8.80533,-1.524 3.47133,-0.04233 6.77333,-0.08467 7.874,-1.312334 0.33867,-0.550333 0.46567,-1.185333 0.46567,-1.820333 0,-1.651 -0.84667,-3.640666 -1.35467,-4.191 -3.175,2.794 -8.04333,4.699 -12.53067,4.953 1.05834,-2.159 2.159,-3.598333 5.29167,-6.307666 6.94267,-6.011334 12.065,-10.456333 12.065,-15.917333 z"
         style="font-style:normal;font-variant:normal;font-weight:normal;font-stretch:normal;font-size:42.33333206px;font-family:'Kaushan Script';-inkscape-font-specification:'Kaushan Script, Normal';font-variant-ligatures:normal;font-variant-caps:normal;font-variant-numeric:normal;font-feature-settings:normal;text-align:start;writing-mode:lr-tb;text-anchor:start;fill:#0088aa;stroke:#0088aa;stroke-width:0.26458332px;stroke-opacity:1"
         id="path822" />
      <path
         d="m 134.79798,92.983999 c 11.13367,-0.254 18.62667,-13.843 18.62667,-23.918333 0,-5.122333 -2.24367,-8.805333 -6.94267,-8.805333 -9.525,0 -18.669,13.292667 -18.669,23.579666 0,6.053667 2.921,8.382 6.985,9.144 z m -1.69333,-7.408333 c 0,-7.366 6.94267,-22.224999 14.68967,-23.156333 1.60866,0.381 2.286,2.455334 2.286,5.545667 0,5.884333 -5.334,22.775332 -12.99634,23.198666 -2.58233,-0.423334 -3.97933,-1.778 -3.97933,-5.588 z"
         style="font-style:normal;font-variant:normal;font-weight:normal;font-stretch:normal;font-size:42.33333206px;font-family:'Kaushan Script';-inkscape-font-specification:'Kaushan Script, Normal';font-variant-ligatures:normal;font-variant-caps:normal;font-variant-numeric:normal;font-feature-settings:normal;text-align:start;writing-mode:lr-tb;text-anchor:start;fill:#0088aa;stroke:#0088aa;stroke-width:0.26458332px;stroke-opacity:1"
         id="path824" />
      <path
         d="m 165.38316,88.411999 c -0.762,0 -1.778,0.04233 -2.96333,0.169334 2.49766,-8.170334 6.39233,-19.388667 8.67833,-23.495 0.42333,-0.804333 1.05833,-1.481666 1.778,-2.074333 -0.67733,-1.354667 -4.14867,-1.947333 -5.75733,-2.370667 -0.59267,1.143 -1.60867,2.413 -2.24367,3.005667 -2.58233,2.455333 -4.65667,4.487333 -6.731,7.281333 0,0.635 0.16933,0.973667 0.46567,1.143 1.43933,-1.27 3.72533,-3.005667 5.63033,-3.894667 -2.24367,6.519334 -4.572,14.181667 -6.18067,20.997333 -3.429,0.550333 -6.604,1.227667 -7.06966,1.651 0.55033,1.439333 2.24366,2.370667 4.445,2.370667 2.667,0 6.43466,-1.058334 9.86366,-1.058334 1.22767,0 2.11667,0.08467 2.83634,0.211667 0.127,-0.338667 0.21166,-0.889 0.21166,-1.312333 0,-1.651 -1.10066,-2.624667 -2.96333,-2.624667 z"
         style="font-style:normal;font-variant:normal;font-weight:normal;font-stretch:normal;font-size:42.33333206px;font-family:'Kaushan Script';-inkscape-font-specification:'Kaushan Script, Normal';font-variant-ligatures:normal;font-variant-caps:normal;font-variant-numeric:normal;font-feature-settings:normal;text-align:start;writing-mode:lr-tb;text-anchor:start;fill:#0088aa;stroke:#0088aa;stroke-width:0.26458332px;stroke-opacity:1"
         id="path826" />
      <path
         d="m 192.79399,82.696999 c 0,-3.937 -2.58233,-6.392333 -4.953,-8.720666 3.89467,-1.820333 7.62,-4.741333 7.62,-7.662333 0,-2.667 -2.96333,-4.910667 -7.19667,-6.265333 -4.61433,0.550333 -9.94833,3.81 -9.94833,8.593666 0,2.836333 1.69333,4.826 3.64067,6.646333 -5.37634,2.413 -9.35567,5.672667 -9.35567,10.710333 0,5.545667 4.14867,7.366 9.10167,7.366 5.24933,0 11.09133,-4.402667 11.09133,-10.668 z m -15.748,4.191 c 0,-3.090333 1.778,-6.731 6.90033,-9.694333 1.778,1.735667 3.302,3.640667 3.302,6.35 0,5.122333 -3.25966,7.958666 -6.13833,7.958666 -2.07433,0 -4.064,-1.481666 -4.064,-4.614333 z m 14.605,-21.547666 c 0,2.328333 -3.34433,5.630333 -5.461,7.027333 -1.35467,-1.481666 -2.37067,-3.005666 -2.37067,-4.953 0,-2.412999 3.21734,-4.783666 5.54567,-5.206999 1.27,0.211666 2.286,1.312333 2.286,3.132666 z"
         style="font-style:normal;font-variant:normal;font-weight:normal;font-stretch:normal;font-size:42.33333206px;font-family:'Kaushan Script';-inkscape-font-specification:'Kaushan Script, Normal';font-variant-ligatures:normal;font-variant-caps:normal;font-variant-numeric:normal;font-feature-settings:normal;text-align:start;writing-mode:lr-tb;text-anchor:start;fill:#0088aa;stroke:#0088aa;stroke-width:0.26458332px;stroke-opacity:1"
         id="path828" />
    </g>
  </g>
</svg>
