<?xml version="1.0" encoding="UTF-8" standalone="no"?>
<svg
   xmlns:dc="http://purl.org/dc/elements/1.1/"
   xmlns:cc="http://creativecommons.org/ns#"
   xmlns:rdf="http://www.w3.org/1999/02/22-rdf-syntax-ns#"
   xmlns:svg="http://www.w3.org/2000/svg"
   xmlns="http://www.w3.org/2000/svg"
   viewBox="0 0 1066.25 733.08752"
   height="733.08752"
   width="1066.25"
   xml:space="preserve"
   version="1.1"
   id="svg2"><metadata
     id="metadata8"><rdf:RDF><cc:Work
         rdf:about=""><dc:format>image/svg+xml</dc:format><dc:type
           rdf:resource="http://purl.org/dc/dcmitype/StillImage" /></cc:Work></rdf:RDF></metadata><defs
     id="defs6"><clipPath
       id="clipPath18"
       clipPathUnits="userSpaceOnUse"><path
         id="path20"
         d="M 8530,0 0,0 l 0,5864.69 8530,0 L 8530,0 Z" /></clipPath><linearGradient
       id="linearGradient22"
       spreadMethod="pad"
       gradientTransform="matrix(3e-7,-5864.69,-5864.69,-3e-7,4265,5864.69)"
       gradientUnits="userSpaceOnUse"
       y2="0"
       x2="1"
       y1="0"
       x1="0"><stop
         id="stop24"
         offset="0"
         style="stop-opacity:1;stop-color:#ab0000" /><stop
         id="stop26"
         offset="1"
         style="stop-opacity:1;stop-color:#8b0000" /></linearGradient><clipPath
       id="clipPath34"
       clipPathUnits="userSpaceOnUse"><path
         id="path36"
         d="M 0,5864.69 0,0 l 8530,0 0,5864.69 -8530,0 z" /></clipPath></defs><g
     transform="matrix(1.25,0,0,-1.25,0,733.0875)"
     id="g10"><g
       transform="scale(0.1,0.1)"
       id="g12"><g
         id="g14"><g
           clip-path="url(#clipPath18)"
           id="g16"><path
             id="path28"
             style="fill:url(#linearGradient22);fill-opacity:1;fill-rule:nonzero;stroke:none"
             d="m 0,0 8530,0 0,5864.69 -8530,0 L 0,0 Z" /></g></g><g
         id="g30"><g
           clip-path="url(#clipPath34)"
           id="g32"><path
             id="path38"
             style="fill:#ffffff;fill-opacity:1;fill-rule:nonzero;stroke:none"
             d="m 2603.04,3492.39 c 0,68.88 -10.23,131.87 -30.68,189.01 -20.45,57.1 -49.69,105.84 -87.77,146.18 -38.08,40.29 -85,71.78 -140.71,94.48 -55.72,22.71 -117.97,34.06 -186.68,34.06 l -217.35,0 0,-932.53 217.35,0 c 70.57,0 133.74,11.74 189.45,35.26 55.71,23.53 102.63,56.28 140.71,98.3 38.08,42.03 66.89,91.59 86.39,148.73 19.49,57.1 29.29,119.27 29.29,186.51 z m -1206.55,-897.27 0,1789.46 760.71,0 c 163.46,0 307.42,-23.52 431.89,-70.57 124.46,-47.05 228.48,-110.91 312.1,-191.58 83.61,-80.66 146.77,-175.15 189.49,-283.5 42.72,-108.4 64.08,-223.9 64.08,-346.54 0,-136.13 -23.7,-259.25 -71.05,-369.29 -47.4,-110.04 -114.72,-204.14 -202.02,-282.25 -87.34,-78.15 -192.27,-138.63 -314.87,-181.48 -122.61,-42.85 -259.16,-64.25 -409.62,-64.25 l -760.71,0" /><path
             id="path40"
             style="fill:#ffffff;fill-opacity:1;fill-rule:nonzero;stroke:none"
             d="m 4601.75,3492.39 c 0,68.88 -10.22,131.87 -30.67,189.01 -20.45,57.1 -49.69,105.84 -87.77,146.18 -38.09,40.29 -85,71.78 -140.72,94.48 -55.71,22.71 -117.97,34.06 -186.68,34.06 l -217.35,0 0,-932.53 217.35,0 c 70.58,0 133.74,11.74 189.45,35.26 55.72,23.53 102.64,56.28 140.72,98.3 38.08,42.03 66.89,91.59 86.38,148.73 19.5,57.1 29.29,119.27 29.29,186.51 z m -1206.55,-897.27 0,1789.46 760.71,0 c 163.46,0 307.42,-23.52 431.89,-70.57 124.47,-47.05 228.49,-110.91 312.1,-191.58 83.61,-80.66 146.78,-175.15 189.5,-283.5 42.71,-108.4 64.07,-223.9 64.07,-346.54 0,-136.13 -23.7,-259.25 -71.05,-369.29 -47.4,-110.04 -114.72,-204.14 -202.02,-282.25 -87.34,-78.15 -192.26,-138.63 -314.87,-181.48 -122.6,-42.85 -259.16,-64.25 -409.62,-64.25 l -760.71,0" /><path
             id="path42"
             style="fill:#ffffff;fill-opacity:1;fill-rule:nonzero;stroke:none"
             d="m 5937.27,3474.71 0,-879.59 -543.35,0 0,1789.46 423.52,0 794.16,-909.87 0,909.87 543.4,0 0,-1789.46 -431.93,0 -785.8,879.59" /><path
             id="path44"
             style="fill:#ffffff;fill-opacity:1;fill-rule:nonzero;stroke:none"
             d="m 1976.95,2018.97 c -6.69,5.17 -17.42,11.84 -32.19,20.05 -14.8,8.19 -32.44,15.95 -52.94,23.28 -20.52,7.32 -43.41,13.59 -68.67,18.76 -25.29,5.17 -52.22,7.76 -80.84,7.76 -41.02,0 -72.74,-5.82 -95.14,-17.46 -22.42,-11.64 -33.62,-28.68 -33.62,-51.1 0,-13.8 4.52,-25.22 13.59,-34.28 9.06,-9.05 21.93,-17.04 38.63,-23.93 16.68,-6.91 36.95,-13.16 60.81,-18.76 23.83,-5.62 51.01,-11.44 81.54,-17.46 41.96,-8.63 80.12,-18.55 114.46,-29.75 34.34,-11.22 63.42,-25.03 87.27,-41.4 23.83,-16.39 42.21,-36.22 55.08,-59.5 12.88,-23.29 19.32,-51.75 19.32,-85.38 0,-40.55 -8.83,-74.6 -26.47,-102.19 -17.66,-27.61 -41.27,-50.25 -70.82,-67.92 -29.57,-17.68 -63.66,-30.4 -102.29,-38.16 -38.63,-7.76 -79.41,-11.64 -122.33,-11.64 -64.87,0 -129,8.21 -192.42,24.58 -63.45,16.37 -120.43,38.81 -170.97,67.26 l 78.69,135.83 c 9.52,-8.63 23.6,-18.11 42.2,-28.46 18.6,-10.34 40.78,-19.85 66.53,-28.46 25.75,-8.63 53.87,-15.74 84.41,-21.34 30.51,-5.62 61.99,-8.41 94.42,-8.41 88.71,0 133.06,21.55 133.06,64.68 0,12.94 -4.29,23.71 -12.88,32.34 -8.58,8.61 -20.99,16.6 -37.2,23.93 -16.23,7.32 -36.25,14.01 -60.08,20.05 -23.86,6.03 -51.51,12.49 -82.98,19.41 -47.71,11.19 -88.48,22.84 -122.33,34.93 -33.87,12.06 -61.76,26.07 -83.69,42.04 -21.95,15.94 -38.16,34.48 -48.65,55.62 -10.5,21.12 -15.73,45.92 -15.73,74.38 0,37.07 8.34,70.06 25.03,98.96 16.68,28.89 39.35,52.81 67.96,71.8 28.61,18.95 61.99,33.41 100.15,43.33 38.14,9.91 78.69,14.88 121.61,14.88 61.02,0 117.54,-8.21 169.53,-24.58 51.98,-16.39 96.57,-34.93 133.77,-55.63 l -75.82,-128.06" /><path
             id="path46"
             style="fill:#ffffff;fill-opacity:1;fill-rule:nonzero;stroke:none"
             d="m 2894.01,2084.94 -281.85,0 0,-585.99 -173.11,0 0,585.99 -283.28,0 0,137.12 738.24,0 0,-137.12" /><path
             id="path48"
             style="fill:#ffffff;fill-opacity:1;fill-rule:nonzero;stroke:none"
             d="m 3141.5,1859.86 c 0,-29.33 5.47,-57.57 16.45,-84.73 10.95,-27.17 27.18,-51.32 48.64,-72.44 21.46,-21.15 47.44,-38.16 77.98,-51.1 30.51,-12.94 65.32,-19.4 104.44,-19.4 39.09,0 73.9,6.67 104.44,20.05 30.51,13.36 56.02,30.82 76.54,52.39 20.5,21.54 35.99,45.92 46.5,73.08 10.48,27.17 15.73,54.98 15.73,83.44 0,29.31 -5.72,57.57 -17.17,84.73 -11.44,27.17 -27.67,51.1 -48.64,71.79 -20.99,20.7 -46.5,37.3 -76.54,49.81 -30.05,12.49 -64.16,18.75 -102.3,18.75 -39.11,0 -73.92,-6.68 -104.43,-20.05 -30.54,-13.38 -56.29,-30.62 -77.26,-51.74 -20.99,-21.14 -36.98,-45.27 -47.93,-72.44 -10.98,-27.16 -16.45,-54.55 -16.45,-82.14 z m 244.64,-366.09 c -62.95,0 -120.17,10.35 -171.68,31.05 -51.5,20.7 -95.63,48.28 -132.34,82.79 -36.72,34.48 -65.34,73.73 -85.84,117.72 -20.52,43.98 -30.76,89.25 -30.76,135.82 0,47.42 10.73,93.14 32.19,137.12 21.46,43.98 51.02,82.79 88.71,116.43 37.66,33.63 82.26,60.57 133.76,80.85 51.51,20.25 107.78,30.39 168.83,30.39 62.95,0 120.4,-10.57 172.39,-31.69 51.98,-21.14 96.08,-48.95 132.34,-83.44 36.24,-34.5 64.38,-73.95 84.41,-118.36 20.03,-44.43 30.05,-89.48 30.05,-135.18 0,-47.44 -10.51,-93.14 -31.48,-137.12 -20.99,-43.98 -50.07,-82.79 -87.27,-116.42 -37.2,-33.64 -81.79,-60.38 -133.77,-80.21 -52,-19.84 -108.51,-29.75 -169.54,-29.75" /><path
             id="path50"
             style="fill:#ffffff;fill-opacity:1;fill-rule:nonzero;stroke:none"
             d="m 4122.95,1872.79 216.03,0 c 31.48,0 57.94,10.13 79.4,30.4 21.46,20.26 32.19,45.48 32.19,75.68 0,15.52 -3.35,29.75 -10.01,42.69 -6.69,12.93 -15.52,24.13 -26.47,33.63 -10.98,9.48 -23.61,16.82 -37.91,21.99 -14.31,5.18 -29.11,7.76 -44.35,7.76 l -208.88,0 0,-212.15 z m -173.12,-373.84 0,723.11 393.44,0 c 41,0 78.69,-7.11 113.03,-21.34 34.33,-14.23 64.13,-32.79 89.41,-55.63 25.26,-22.86 44.82,-48.95 58.66,-78.26 13.82,-29.33 20.75,-58.65 20.75,-87.96 0,-45.72 -14.31,-87.54 -42.92,-125.48 -28.62,-37.96 -67.25,-65.97 -115.89,-84.08 l 208.88,-270.36 -197.43,0 -185.99,236.72 -168.82,0 0,-236.72 -173.12,0" /><path
             id="path52"
             style="fill:#ffffff;fill-opacity:1;fill-rule:nonzero;stroke:none"
             d="m 5130.13,2031.9 -117.32,-227.67 230.34,0 -113.02,227.67 z m -420.62,-532.95 349.08,723.11 141.64,0 347.66,-723.11 -183.13,0 -80.12,169.46 -310.46,0 -80.11,-169.46 -184.56,0" /><path
             id="path54"
             style="fill:#ffffff;fill-opacity:1;fill-rule:nonzero;stroke:none"
             d="m 6237.46,1572.68 c -66.77,-52.61 -144.03,-78.91 -231.77,-78.91 -56.29,0 -108.98,10.13 -158.09,30.4 -49.14,20.25 -92.06,47.64 -128.76,82.14 -36.73,34.49 -65.59,73.94 -86.56,118.37 -20.99,44.4 -31.48,91.19 -31.48,140.35 0,50.01 10.49,97.02 31.48,141 20.97,43.99 50.07,82.35 87.27,115.13 37.2,32.77 81.3,58.64 132.34,77.62 51.01,18.96 106.09,28.46 165.24,28.46 80.12,0 148.79,-14.23 206.02,-42.69 57.23,-28.46 100.15,-66.84 128.76,-115.13 l -131.62,-87.96 c -20.03,33.63 -48.64,59.7 -85.84,78.26 -37.2,18.53 -78.22,27.81 -123.04,27.81 -35.3,0 -67.49,-6.04 -96.57,-18.11 -29.11,-12.09 -53.9,-28.46 -74.4,-49.16 -20.52,-20.7 -36.48,-44.85 -47.92,-72.44 -11.45,-27.61 -17.17,-56.92 -17.17,-87.96 0,-32.79 6.19,-62.96 18.6,-90.55 12.38,-27.61 29.55,-51.32 51.5,-71.15 21.93,-19.85 47.93,-35.58 77.97,-47.22 30.05,-11.64 62.71,-17.46 98,-17.46 79.16,0 151.17,30.6 216.04,91.85 l 0,34.92 -177.41,0 0,113.84 320.48,0 0,-375.14 -143.07,0 0,73.73" /><path
             id="path56"
             style="fill:#ffffff;fill-opacity:1;fill-rule:nonzero;stroke:none"
             d="m 7155.95,1636.07 0,-137.12 -616.63,0 0,723.11 605.18,0 0,-137.12 -432.06,0 0,-153.94 373.41,0 0,-128.06 -373.41,0 0,-166.87 443.51,0" /><path
             id="path58"
             style="fill:#ffffff;fill-opacity:1;fill-rule:nonzero;stroke:none"
             d="m 7437.37,4175.91 29.1,0 c 31.87,0 59.57,9.7 59.57,37.41 0,22.17 -13.85,37.41 -55.42,37.41 -16.63,0 -26.32,-1.39 -33.25,-2.78 l 0,-72.04 z m 0,-130.24 -42.95,0 0,231.38 c 23.55,4.15 48.5,6.93 80.37,6.93 38.78,0 58.18,-6.93 73.42,-18.02 13.85,-9.69 23.55,-27.71 23.55,-48.48 0,-29.1 -20.78,-47.11 -45.72,-55.43 l 0,-2.77 c 20.79,-8.31 31.87,-26.32 38.8,-55.42 6.92,-36.02 11.08,-49.87 16.62,-58.19 l -44.33,0 c -6.92,8.32 -12.47,29.1 -18.02,60.96 -5.54,24.94 -20.77,36.03 -54.02,36.03 l -27.72,0 0,-96.99 z m 38.8,303.43 c -99.76,0 -175.96,-81.75 -175.96,-181.51 0,-102.52 76.2,-182.88 178.73,-182.88 99.75,-1.38 173.19,80.36 173.19,181.5 0,101.14 -73.44,182.89 -174.57,182.89 l -1.39,0 z m 2.77,38.79 c 124.69,0 223.06,-96.99 223.06,-220.3 0,-126.08 -98.37,-223.06 -224.44,-223.06 -126.09,0 -225.84,96.98 -225.84,223.06 0,123.31 99.75,220.3 225.84,220.3 l 1.38,0" /></g></g></g></g></svg>