<?xml version="1.0" encoding="UTF-8"?>
<svg id="_レイヤー_2" data-name="レイヤー 2" xmlns="http://www.w3.org/2000/svg" xmlns:xlink="http://www.w3.org/1999/xlink" viewBox="0 0 224.34 28.58">
  <defs>
    <style>
      .cls-1 {
        fill: #003893;
      }

      .cls-2 {
        fill: url(#_名称未設定グラデーション_21-3);
      }

      .cls-3 {
        fill: url(#_名称未設定グラデーション_21-2);
      }

      .cls-4 {
        fill: url(#_名称未設定グラデーション_45-2);
      }

      .cls-5 {
        fill: url(#_名称未設定グラデーション_21);
      }

      .cls-6 {
        fill: url(#_名称未設定グラデーション_30);
      }

      .cls-7 {
        fill: url(#_名称未設定グラデーション_45);
      }
    </style>
    <linearGradient id="_名称未設定グラデーション_30" data-name="名称未設定グラデーション 30" x1="21.36" y1="-.05" x2="6.96" y2="12.82" gradientUnits="userSpaceOnUse">
      <stop offset="0" stop-color="#009fe8"/>
      <stop offset=".64" stop-color="#124eaa"/>
      <stop offset="1" stop-color="#1d2087"/>
    </linearGradient>
    <linearGradient id="_名称未設定グラデーション_45" data-name="名称未設定グラデーション 45" x1="1204.6" y1="-190.05" x2="1218.7" y2="-205.52" gradientTransform="translate(-881.05 -401.64) rotate(40.08) scale(.79 1.27) skewX(-1.17)" gradientUnits="userSpaceOnUse">
      <stop offset="0" stop-color="#009fe8"/>
      <stop offset="0" stop-color="#009ee7"/>
      <stop offset=".23" stop-color="#0a71c5"/>
      <stop offset=".45" stop-color="#124eaa"/>
      <stop offset=".66" stop-color="#183496"/>
      <stop offset=".85" stop-color="#1b258b"/>
      <stop offset="1" stop-color="#1d2087"/>
    </linearGradient>
    <linearGradient id="_名称未設定グラデーション_45-2" data-name="名称未設定グラデーション 45" x1="464.23" y1="56.78" x2="484.97" y2="51.58" gradientTransform="translate(-449.03 -54.09) rotate(2.43) skewX(-15.58)" xlink:href="#_名称未設定グラデーション_45"/>
    <radialGradient id="_名称未設定グラデーション_21" data-name="名称未設定グラデーション 21" cx="-208.01" cy="-214.51" fx="-208.01" fy="-214.51" r="25.76" gradientTransform="translate(236.08 198.32) rotate(-9.01) scale(.93 1.07) skewX(-2.33)" gradientUnits="userSpaceOnUse">
      <stop offset="0" stop-color="#fff"/>
      <stop offset=".05" stop-color="#b7e4f8"/>
      <stop offset=".1" stop-color="#76cbf2"/>
      <stop offset=".14" stop-color="#43b8ee"/>
      <stop offset=".18" stop-color="#1eaaea"/>
      <stop offset=".21" stop-color="#08a2e8"/>
      <stop offset=".23" stop-color="#009fe8"/>
      <stop offset=".23" stop-color="#009ee7"/>
      <stop offset=".41" stop-color="#0a71c5"/>
      <stop offset=".58" stop-color="#124eaa"/>
      <stop offset=".74" stop-color="#183496"/>
      <stop offset=".88" stop-color="#1b258b"/>
      <stop offset="1" stop-color="#1d2087"/>
    </radialGradient>
    <radialGradient id="_名称未設定グラデーション_21-2" data-name="名称未設定グラデーション 21" cx="481.21" cy="-188.79" fx="481.21" fy="-188.79" r="13.3" gradientTransform="translate(-521.53 66.98) rotate(20.03) scale(1.04 1.28) skewX(3)" xlink:href="#_名称未設定グラデーション_21"/>
    <radialGradient id="_名称未設定グラデーション_21-3" data-name="名称未設定グラデーション 21" cx="25.83" cy="3.39" fx="25.83" fy="3.39" r="22.8" gradientTransform="matrix(1,0,0,1,0,0)" xlink:href="#_名称未設定グラデーション_21"/>
  </defs>
  <g id="_レイヤー_1-2" data-name="レイヤー 1">
    <g>
      <g>
        <g>
          <path class="cls-1" d="m39.94,9.44h-6.02v-.96h6.02v.96Z"/>
          <path class="cls-1" d="m42.75,6.22c-.05.22-.1.42-.15.6h.9v1.52c.26-.27.43-.56.51-.87.05-.22.08-.61.08-1.15h1.86v1.42c0,.07.03.11.08.11h.05c.07,0,.11-.07.13-.2.01-.1.02-.32.02-.65l.63.24c-.01.5-.04.83-.08.96-.07.25-.24.37-.49.37h-.61c-.18,0-.29-.03-.36-.08-.06-.05-.09-.17-.09-.35v-1.05h-.45c-.02.44-.08.8-.19,1.07-.1.26-.27.49-.49.7h2.3v.71c-.14.46-.36.89-.65,1.28.28.2.64.39,1.07.57l-.34.84c-.51-.23-.94-.49-1.28-.8-.37.34-.79.62-1.26.83l-.36-.8c.41-.16.77-.36,1.08-.61-.25-.33-.45-.7-.61-1.11l.42-.18h-.6v-.74h.22l-.59-.51v.34l.25-.03v.8l-.25.03v1.9c0,.35-.04.57-.12.67-.08.1-.26.15-.52.15h-.51l-.24-.85h.47c.09,0,.14-.01.17-.04.03-.03.04-.1.04-.21v-1.54s-.09,0-.25.02v1.65h-.59v-1.6c-.05,0-.14,0-.25.01,0,1.19-.11,2.08-.32,2.68l-.79-.43c.23-.61.35-1.35.36-2.21h-.35s-.09-.81-.09-.81h.44v-2.04h.79c.07-.27.13-.5.16-.67l.85.07Zm.03,2.54v-1.15h-1.09v1.22c.42-.02.78-.04,1.09-.07Zm-.04-.32l-.61.28c-.12-.27-.26-.53-.42-.77l.57-.3c.16.23.32.49.47.78Zm2.45,1.92c.18-.23.33-.48.42-.75h-.88c.12.28.27.53.46.75Z"/>
          <path class="cls-1" d="m49.28,12.21h-.86v-2.1c-.25.26-.52.51-.81.75l-.4-.8c.85-.69,1.46-1.4,1.83-2.13h-1.59v-.79h.9v-.94h.87v.94h.78v.69c-.19.4-.4.77-.65,1.13.28.31.63.62,1.03.95l-.47.7c-.21-.18-.42-.39-.65-.63v2.23Zm4.25-.17h-3.54v-.89h1.34v-2.28h-1.19v-.88h1.19v-1.69h.9v1.69h1.17v.88h-1.17v2.28h1.29v.89Z"/>
          <path class="cls-1" d="m60,12.24h-.93v-.32h-3.76v.32h-.93v-5.83h5.62v5.83Zm-1.09-3.71h-.56v1.52c0,.36-.06.6-.18.71-.12.11-.35.17-.69.17h-.65l-.23-.73h.63c.12,0,.19-.02.23-.05.03-.03.05-.11.05-.22v-1.4h-2.04v-.77h2.04v-.55h-2.23v3.88h3.82v-3.88h-.75v.55h.56v.77Zm-1.71,1.02l-.68.46c-.24-.36-.49-.66-.76-.91l.65-.45c.32.29.58.59.79.9Z"/>
          <path class="cls-1" d="m62.48,10.11c-.23.75-.54,1.42-.91,2.03l-.82-.38c.39-.57.72-1.26.98-2.08l.74.42Zm.05-1.48l-.51.71c-.4-.3-.81-.54-1.22-.71l.48-.71c.36.15.78.39,1.25.71Zm.16-1.67l-.52.71c-.35-.27-.75-.5-1.19-.71l.5-.71c.38.17.78.41,1.21.71Zm3.16,4.74c-.88.18-1.89.34-3.05.48l-.35-.86c.2-.01.41-.03.63-.05.32-.62.59-1.21.81-1.79h-1.36v-.81h1.71v-.93h-1.46v-.8h1.46v-.74h.9v.74h1.55v.8h-1.55v.93h1.78v.81h-2.12c-.22.57-.47,1.13-.74,1.69.45-.06.9-.13,1.34-.21-.18-.28-.36-.54-.54-.78l.77-.3c.38.44.81,1.08,1.29,1.9l-.82.39c-.09-.18-.18-.34-.26-.48Z"/>
          <path class="cls-1" d="m73.87,11.56l-.69.71c-1.21-.76-2.02-1.76-2.46-3.02-.41,1.14-1.23,2.15-2.46,3.02l-.77-.66c1.79-1.09,2.68-2.51,2.68-4.26v-1.09h1.01v.96c0,.82.23,1.62.68,2.41.5.86,1.17,1.5,2,1.92Z"/>
        </g>
        <path class="cls-1" d="m43.38,24.09c-1.67-.61-2.97-1.73-3.9-3.36-1.5,1.67-3.35,2.75-5.55,3.25v-1.58c1.37-.39,2.59-1.08,3.67-2.08,1.2-1.11,2-2.41,2.41-3.91h-5.53v-1.55h7.55c-.15,1.61-.63,3.08-1.45,4.4.51,1.27,1.45,2.3,2.8,3.09v1.74Z"/>
        <path class="cls-1" d="m54.11,19.54h-9.38v-1.57h9.38v1.57Z"/>
        <path class="cls-1" d="m75.91,19.54h-9.38v-1.57h9.38v1.57Z"/>
        <path class="cls-1" d="m86.37,23.56h-8.48v-1.54h6.74v-5.38h-6.73v-1.53h8.46v8.44Z"/>
        <path class="cls-1" d="m101.96,22.08c-.23-.18-.34-.49-.34-.94v-3.11h6.76v-1.51h-6.76v-1.97h-1.66v6.91c0,.87.22,1.49.65,1.87.41.36,1.09.54,2.03.54h5.91v-1.53h-5.53c-.5,0-.85-.08-1.06-.25Z"/>
        <path class="cls-1" d="m118.55,23.7h-7.9v-1.43h4.22l.48-3.97h-3.77v-1.45h5.51l-.62,5.42h2.06v1.43Z"/>
        <path class="cls-1" d="m129.35,19.54h-9.38v-1.57h9.38v1.57Z"/>
        <path class="cls-1" d="m140.91,19.15h-3.26c-.19,1.5-.8,2.67-1.82,3.5-.91.74-2.11,1.2-3.59,1.38v-1.55c1.06-.16,1.9-.53,2.51-1.1.61-.57.97-1.32,1.1-2.23h-4.6v-1.48h9.67v1.48Zm-.63-2.87h-8.35v-1.51h8.35v1.51Z"/>
        <path class="cls-1" d="m150.24,16.36c-.43,1.32-1.28,2.42-2.56,3.29v4.59h-1.62v-3.71c-1.12.49-1.79.86-3.3,1.11v-1.48c3.38-.65,4.86-1.92,5.74-3.81h1.73Z"/>
        <g>
          <path class="cls-1" d="m159.18,16.38c-.22,2.08-.96,3.58-2.2,4.5-1.04.77-2.64,1.24-4.81,1.4v1.61c2.69-.09,4.74-.7,6.15-1.84,1.51-1.22,2.37-3.1,2.59-5.67h-1.73Z"/>
          <rect class="cls-1" x="152.17" y="14.83" width="4.79" height="1.51"/>
        </g>
        <path class="cls-1" d="m170.4,20.6c-1.33,2.04-3.51,3.18-6.55,3.42v-1.5c3.78-.42,5.85-2.48,6.21-6.17h-4.2c-.32.8-.79,1.5-1.4,2.11-.63.63-1.33,1.09-2.11,1.38v-1.66c1.18-.76,1.93-1.88,2.26-3.34h5.74v-1.09h1v1.09h.46v-1.09h1v1.64h-.96c-.07,2.12-.55,3.86-1.43,5.22Z"/>
        <path class="cls-1" d="m178.96,19.23c0,.38-.13.71-.4.97s-.59.4-.97.4-.71-.13-.98-.4c-.27-.26-.41-.59-.41-.98s.14-.71.41-.98c.27-.27.6-.4.98-.4s.71.13.97.4c.27.27.4.59.4.98Z"/>
        <rect class="cls-1" x="190.27" y="14.2" width=".99" height="1.64"/>
        <rect class="cls-1" x="191.72" y="14.2" width="1" height="1.64"/>
        <path class="cls-1" d="m188.85,20.97c-1.11.89-2.84,1.37-5.2,1.45v1.61c2.74-.04,4.83-.62,6.27-1.75,1.6-1.25,2.5-3.22,2.71-5.9h-1.72c-.21,2.13-.9,3.67-2.06,4.6Z"/>
        <path class="cls-1" d="m203.35,17.47c-.1,1.4-.53,2.55-1.3,3.44-.7.8-1.62,1.36-2.78,1.66v-1.5c1.11-.38,1.84-1.1,2.2-2.15l-3.23.13.96,5.11h-1.59l-.93-5.05-1.84.06v-1.45l1.61-.05-.23-1.41h1.55l.23,1.38,5.34-.17Z"/>
        <g>
          <path class="cls-1" d="m96.01,16.38c-.22,2.08-.96,3.58-2.2,4.5-1.04.77-2.64,1.24-4.81,1.4v1.61c2.69-.09,4.74-.7,6.15-1.84,1.51-1.22,2.37-3.1,2.59-5.67h-1.73Z"/>
          <rect class="cls-1" x="89" y="14.83" width="4.79" height="1.51"/>
        </g>
        <g>
          <path class="cls-1" d="m222.61,16.38c-.22,2.08-.96,3.58-2.2,4.5-1.04.77-2.64,1.24-4.81,1.4v1.61c2.69-.09,4.74-.7,6.15-1.84,1.51-1.22,2.37-3.1,2.59-5.67h-1.73Z"/>
          <rect class="cls-1" x="215.6" y="14.83" width="4.79" height="1.51"/>
        </g>
        <rect class="cls-1" x="183.66" y="14.78" width="4.79" height="1.51"/>
        <rect class="cls-1" x="183.66" y="17.4" width="4.79" height="1.51"/>
        <g>
          <path class="cls-1" d="m57.61,15.37c0,3.2-.72,5.5-2.16,6.89v1.85c2.56-1.37,3.84-4.29,3.84-8.77v-.69h-1.69v.72Z"/>
          <path class="cls-1" d="m62.99,14.65h-1.7v.7c0,4.47,1.28,7.38,3.84,8.75v-1.85c-1.43-1.38-2.14-3.67-2.14-6.87v-.73Z"/>
          <path class="cls-1" d="m64.56,14.6c.3,0,.54.24.54.54s-.24.54-.54.54-.54-.24-.54-.54.24-.54.54-.54m0-.66c-.67,0-1.2.54-1.2,1.2s.54,1.2,1.2,1.2,1.2-.54,1.2-1.2-.54-1.2-1.2-1.2h0Z"/>
        </g>
        <path class="cls-1" d="m107.45,14.46c.3,0,.54.24.54.54s-.24.54-.54.54-.54-.24-.54-.54.24-.54.54-.54m0-.66c-.67,0-1.2.54-1.2,1.2s.54,1.2,1.2,1.2,1.2-.54,1.2-1.2-.54-1.2-1.2-1.2h0Z"/>
        <g>
          <path class="cls-1" d="m206.01,15.37c0,3.2-.72,5.5-2.16,6.89v1.85c2.56-1.37,3.84-4.29,3.84-8.77v-.69h-1.69v.72Z"/>
          <path class="cls-1" d="m211.39,14.65h-1.7v.7c0,4.47,1.28,7.38,3.84,8.75v-1.85c-1.43-1.38-2.14-3.67-2.14-6.87v-.73Z"/>
          <path class="cls-1" d="m212.96,14.6c.3,0,.54.24.54.54s-.24.54-.54.54-.54-.24-.54-.54.24-.54.54-.54m0-.66c-.67,0-1.2.54-1.2,1.2s.54,1.2,1.2,1.2,1.2-.54,1.2-1.2-.54-1.2-1.2-1.2h0Z"/>
        </g>
      </g>
      <g>
        <path class="cls-6" d="m14.27,2.52c-.44.24-.82.44-1.22.7-.21.14-.52.35-.73.49-5.77,4.05-6.42,9.52-1.91,10.5C5.97,10.83,17.09,1.18,24.71,0c-3.11,0-6.56.69-9.52,2.08-.19.09-.43.19-.62.29-.09.05-.21.1-.3.15Z"/>
        <path class="cls-7" d="m24.2,18.54c.2-.41.36-.85.55-1.24-2.45,4.96-10.29,10.03-16.03,9.92-1.85-.04-3.88-.47-5.09-1.2,1.29,1.5,3.82,2.44,6.53,2.55.94.04,1.91-.03,2.88-.19,4.82-1.38,8.91-5.58,11.17-9.84Z"/>
        <path class="cls-4" d="m18.59,18.91c1.2-3.21-.04-5.07-2.32-5.97,0,0,0,0,0,.01,1.31.64,2.14,1.68,2.2,2.95.11,2.61-3.48,5.59-7.56,6.25h0c-3.04.57-8.39.51-10.8-5.01-1.16,5.36,7.19,9.12,13.95,6.38.31-.12.52-.21.67-.28,1.68-1.13,3.29-2.78,3.87-4.32Z"/>
        <path class="cls-5" d="m3.66,15.87c.17,2.34,2.33,4.43,5.34,4.77,1.93.22,4.3-.35,5.53-1.96,1.46-1.93-.48-4.08-2.9-4.26-6.05-.46-5.39-8,3.7-12.41C8.44,4.76,3.26,10.47,3.66,15.87Z"/>
        <path class="cls-3" d="m16.1,7.99c-4.32.05-5.26,4.1-2.69,4.34,4,.37,6.71,2.23,5.09,6.6-.58,1.55-2.23,3.18-3.78,4.31,9.55-4.43,10.36-15.34,1.38-15.24Z"/>
        <path class="cls-2" d="m28.15,17.35c1.09-2.26,1.42-4.4,1.11-6.25-.94-5.51-6.94-8.27-11.15-4.81,7.08-.49,8.07,6.38,7.14,9.65-.11.4-.27.85-.5,1.36-2.08,4.66-6.49,9.52-11.72,11.08,6.29-1.04,12.41-5.4,15.12-11.03Z"/>
      </g>
    </g>
  </g>
</svg>